<svg width="240" height="320" viewBox="0 0 240 320" fill="none" xmlns="http://www.w3.org/2000/svg">
<g clip-path="url(#clip0_2_6)">
<path d="M58.3472 28.2847C77.0736 27.2884 94.209 51.0731 82.5882 68.5731C101.565 74.5732 99.2498 108.016 80.5 116C60.1239 116.333 43.0156 90.3608 54.4351 71.9392C36.5102 59.755 41.1944 34.7884 58.3472 28.2847Z" fill="#D2A679" stroke="#9B6D4D" stroke-width="2"/>
<path d="M80.5 58C81.2383 60.8016 81.0131 62.3396 79 65M58 34.5C55.0426 35.4593 53.8153 36.5256 52.5 39.5M50 44.5C48.1661 47.9902 47.6451 49.957 48.5 53.5M50 59.5C50.964 63.5231 52.1335 65.2997 55.5 67.5M82 73C87.0219 74.373 87.5034 76.3711 88.5 79.5M90 83C91.9054 86.2932 91.3405 89.8394 90.5 94M90 98.5C89.5611 102.725 88.4964 104.604 85 107M72 110C66.961 107.52 66.8053 106.203 64.5 103M61.5 99.5C57.8433 96.114 57.0862 93.1221 57 89M57 84.5C56.5131 80.6305 56.8137 78.355 59 74M65.5 34C67.485 33.4843 71.7111 35.9242 73 39M75 42C78.8525 44.6182 79.0457 47.5795 79.5 52.5M59 43C57.6457 45.5196 57.3961 46.942 58 49.5M58 57C57.7624 60.3484 58.3087 61.9462 60 64.5M68 42C70.0614 43.8958 70.7035 45.1021 71 47.5M73 58C73.8932 60.2711 73.6829 61.4791 72 63.5M66.5 76.5C65.4563 79.0293 65.2991 80.3535 66 82.5M67.5 90.5C67.2219 92.4576 67.6086 93.4296 69 95M70.5 101C70.8672 102.788 71.2011 103.743 73 105M80 104.5C80.7674 104.353 82.2408 100.965 82 99M82 94C83.3938 93.5991 83.4983 90.4991 82.5 89M80 80.5C80.9132 79.4731 78.7138 75.2812 76.5 74" stroke="black" stroke-opacity="0.25" stroke-width="0.5"/>
<path d="M180.491 187.779C199.244 187.695 215.201 212.286 202.743 229.2C221.405 236.116 217.465 269.406 198.349 276.469C177.981 275.809 162.157 249.036 174.459 231.192C157.148 218.15 163.042 193.441 180.491 187.779Z" fill="#D2A679" stroke="#9B6D4D" stroke-width="2"/>
<path d="M201.172 218.537C201.773 221.372 201.473 222.897 199.333 225.456M179.842 193.97C176.841 194.785 175.563 195.79 174.105 198.697M171.365 203.569C169.363 206.966 168.747 208.905 169.428 212.486M170.635 218.551C171.402 222.617 172.483 224.448 175.739 226.81M201.94 233.593C206.889 235.208 207.273 237.227 208.116 240.401M209.444 243.97C211.187 247.352 210.45 250.867 209.408 254.981M208.69 259.452C208.046 263.65 206.891 265.475 203.282 267.698M190.151 270.062C185.239 267.339 185.148 266.017 183.001 262.706M180.175 259.064C176.687 255.504 176.077 252.479 176.191 248.357M176.41 243.862C176.112 239.974 176.523 237.716 178.919 233.472M187.357 193.836C189.365 193.417 193.467 196.06 194.605 199.195M196.457 202.289C200.177 205.091 200.226 208.058 200.44 212.995M180.427 202.509C178.952 204.96 178.633 206.368 179.112 208.953M178.747 216.444C178.347 219.777 178.815 221.399 180.38 224.032M189.465 201.948C191.432 203.942 192.014 205.178 192.194 207.588M193.68 218.172C194.462 220.484 194.193 221.681 192.414 223.617M186.288 236.334C185.122 238.81 184.901 240.125 185.497 242.303M186.606 250.366C186.233 252.308 186.571 253.298 187.885 254.934M189.091 261C189.371 262.804 189.658 263.774 191.394 265.117M198.41 264.958C199.183 264.848 200.82 261.537 200.675 259.562M200.918 254.568C202.33 254.235 202.585 251.144 201.661 249.598M199.577 240.986C200.539 240.005 198.547 235.711 196.398 234.324" stroke="black" stroke-opacity="0.25" stroke-width="0.5"/>
<path d="M211.751 32.4929C225.982 44.7052 221.948 73.7407 201.458 78.3715C211.039 95.8165 186.268 118.404 167.194 111.229C152.228 97.3977 157.792 66.7992 178.773 61.3629C174.224 40.1717 194.854 25.3504 211.751 32.4929Z" fill="#D2A679" stroke="#9B6D4D" stroke-width="2"/>
<path d="M207.25 69.2827C205.849 71.8188 204.624 72.7755 201.331 73.3093M207.207 36.7481C204.406 35.3995 202.782 35.323 199.776 36.5658M194.515 38.4553C190.779 39.713 189.043 40.7756 187.215 43.9284M184.156 49.3036C182.075 52.879 181.693 54.9715 182.609 58.8878M197.976 81.1669C200.659 85.628 199.628 87.4057 198.187 90.3568M196.855 93.924C195.959 97.6216 193.101 99.7962 189.62 102.225M186.151 105.134C182.915 107.886 180.847 108.51 176.664 107.828M165.19 101.02C163.259 95.7458 164.056 94.6862 164.601 90.7776M164.848 86.1745C164.542 81.2003 166.061 78.5136 168.845 75.4729M171.953 72.2184C174.273 69.0836 176.062 67.6455 180.651 66.0059M212.977 41.5661C214.768 42.5641 216.14 47.2473 214.948 50.3619M214.322 53.9128C215.3 58.4669 213.395 60.742 210.325 64.6143M202.06 43.5861C199.341 44.4731 198.178 45.3294 196.848 47.5964M191.668 53.0205C189.184 55.2781 188.476 56.8108 187.935 59.8259M209.26 49.0784C209.441 51.8731 209.072 53.1891 207.631 55.128M201.826 64.103C200.903 66.3624 199.917 67.0908 197.304 67.3901M184.348 72.9936C181.847 74.1019 180.819 74.9512 179.843 76.9876M175.403 83.8092C173.85 85.033 173.458 86.003 173.38 88.0997M170.321 93.4749C169.352 95.0217 168.934 95.943 169.367 98.0943M174.775 102.567C175.431 102.99 178.836 101.558 180.019 99.9706M183.473 96.3545C184.757 97.0271 186.974 94.8573 187.287 93.0837M191.349 85.2098C192.719 85.0978 194.023 80.5472 193.307 78.0917" stroke="black" stroke-opacity="0.25" stroke-width="0.5"/>
<path d="M61.938 276.625C44.5041 269.717 38.8569 240.951 56.7201 229.897C41.9782 216.526 58.0374 187.1 78.4083 187.668C97.0644 195.868 101.774 226.61 83.7096 238.586C94.915 257.138 80.24 277.873 61.938 276.625Z" fill="#D2A679" stroke="#9B6D4D" stroke-width="2"/>
<path d="M54.2058 240.377C54.7039 237.523 55.5503 236.219 58.4899 234.641M64.8471 271.122C67.935 271.484 69.4953 271.027 71.9318 268.873M76.2901 265.373C79.4131 262.966 80.7073 261.396 81.4088 257.82M82.5494 251.741C83.3521 247.683 83.0307 245.58 80.8894 242.176M59.1019 226.119C55.1111 222.776 55.5072 220.759 55.9072 217.5M56.0045 213.693C55.6472 209.905 57.6403 206.918 60.1403 203.488M62.4724 199.607C64.6343 195.951 66.3861 194.687 70.5632 193.969M83.6292 196.668C87.1735 201.024 86.7656 202.286 87.524 206.159M88.7898 210.591C90.7 215.194 90.1395 218.229 88.4978 222.011M86.6201 226.101C85.4479 229.82 84.2252 231.763 80.421 234.808M57.8226 268.447C55.8035 268.087 52.981 264.106 53.0932 260.773M52.5275 257.212C50.119 253.226 51.1791 250.454 52.8195 245.793M67.4852 262.98C69.7673 261.256 70.5877 260.067 71.1063 257.49M74.236 250.675C75.8491 247.731 76.0194 246.051 75.548 243.024M58.8889 260.133C57.8066 257.55 57.7265 256.186 58.4577 253.883M61.0216 243.507C61.1575 241.07 61.8528 240.06 64.2254 238.926M74.6484 229.407C76.6524 227.544 77.3478 226.406 77.6065 224.163M79.5816 216.266C80.6512 214.603 80.7054 213.559 80.0962 211.551M81.2368 205.472C81.6492 203.694 81.7442 202.687 80.634 200.794M74.0639 198.328C73.305 198.141 70.5526 200.605 69.9513 202.491M67.8649 207.035C66.4309 206.818 65.0424 209.591 65.324 211.37M64.0491 220.138C62.7907 220.69 63.0402 225.418 64.5174 227.506" stroke="black" stroke-opacity="0.25" stroke-width="0.5"/>
</g>
<defs>
<clipPath id="clip0_2_6">
<rect width="240" height="320" fill="white"/>
</clipPath>
</defs>
</svg>
